<svg xmlns="http://www.w3.org/2000/svg" width="24" height="24" viewBox="0 0 24 24">
  <defs>
    <style>
      .cls-1 {
        fill: #787878;
        fill-rule: evenodd;
      }
    </style>
  </defs>
  <path id="Фигура_5" data-name="Фигура 5" class="cls-1" d="M952,3796.76a6.19,6.19,0,1,0,6.191,6.19A6.205,6.205,0,0,0,952,3796.76Zm0,10.16a3.965,3.965,0,1,1,3.966-3.97A3.986,3.986,0,0,1,952,3806.92Zm6.433-11.71a1.405,1.405,0,1,1-1.4,1.4A1.4,1.4,0,0,1,958.43,3795.21Zm3.628-2.22a6.877,6.877,0,0,0-5.079-1.99h-9.965a6.63,6.63,0,0,0-7.013,7.02v9.91a6.977,6.977,0,0,0,2.031,5.18,7.053,7.053,0,0,0,5.031,1.89h9.868a7.142,7.142,0,0,0,5.079-1.89,6.935,6.935,0,0,0,1.983-5.13v-9.96A6.921,6.921,0,0,0,962.058,3792.99Zm-0.29,14.99a4.664,4.664,0,0,1-1.306,3.53,4.968,4.968,0,0,1-3.531,1.26h-9.868a4.966,4.966,0,0,1-3.531-1.26,4.86,4.86,0,0,1-1.306-3.58v-9.91a4.819,4.819,0,0,1,1.306-3.53,4.887,4.887,0,0,1,3.531-1.26h9.965a4.822,4.822,0,0,1,3.531,1.3,5.015,5.015,0,0,1,1.306,3.49v9.96h-0.1Z" transform="translate(-940 -3791)"/>
</svg>
