<svg xmlns="http://www.w3.org/2000/svg" width="23.031" height="19.22" viewBox="0 0 23.031 19.22">
  <defs>
    <style>
      .cls-1 {
        fill: #787878;
        fill-rule: evenodd;
      }
    </style>
  </defs>
  <path id="Фигура_8" data-name="Фигура 8" class="cls-1" d="M903.535,3795.85a13.85,13.85,0,0,1-3.072,1,6.545,6.545,0,0,0,2.3-3.07,15.752,15.752,0,0,1-2.458,1.38l-0.614-.61a3.872,3.872,0,0,0-3.072-1.54,4.528,4.528,0,0,0-4.608,4.61,2.365,2.365,0,0,0,.077.77h-0.077c-4.608,0-7.68-1-9.984-3.84a4.837,4.837,0,0,0-.768,2.3,4.694,4.694,0,0,0,2.3,3.84,4.776,4.776,0,0,1-2.3-.77c0,2.31,3.226,4.92,5.376,5.38-0.768.77-3.533,0.07-3.84,0a4.916,4.916,0,0,0,4.608,3.07,9.279,9.279,0,0,1-5.76,1.92,5.585,5.585,0,0,1-1.152-.08,15.017,15.017,0,0,0,7.68,2c8.678,0,13.056-6.84,13.056-13.06v-0.76A10.5,10.5,0,0,0,903.535,3795.85Z" transform="translate(-880.5 -3793)"/>
</svg>
